<svg width="160" height="40" viewBox="0 0 160 40" fill="none" xmlns="http://www.w3.org/2000/svg">
<g clip-path="url(#clip0_57_9391)">
<path opacity="0.72" d="M40.0882 18.3521C40.0685 18.1526 39.9758 17.9672 39.8277 17.8315C39.6796 17.6957 39.4864 17.6191 39.2852 17.6161H19.2732C18.7298 17.6293 18.1993 17.7839 17.7344 18.0646C17.2695 18.3453 16.8864 18.7423 16.6231 19.2161C16.3794 19.6398 16.2512 20.1197 16.2512 20.6081C16.2512 21.0965 16.3794 21.5763 16.6231 22.0001C16.6927 22.1333 16.796 22.2462 16.9227 22.3276C17.0495 22.409 17.1952 22.456 17.3458 22.4641H39.3334C39.5347 22.4611 39.7278 22.3844 39.8759 22.2487C40.024 22.1129 40.1168 21.9276 40.1365 21.7281C40.1365 21.1041 40.1365 20.5761 40.1365 20.1281C40.1365 19.6801 40.1364 18.9601 40.0882 18.3521Z" fill="#3758F9"/>
<path d="M40.0721 18.3521C40.0562 18.1539 39.9669 17.9688 39.8214 17.8327C39.6759 17.6967 39.4847 17.6194 39.2852 17.6161H36.073C35.9603 17.6174 35.8491 17.6422 35.7467 17.6891C35.6443 17.736 35.5531 17.8038 35.4787 17.8881C35.4038 17.9692 35.3477 18.0657 35.3144 18.1707C35.2811 18.2758 35.2714 18.3869 35.286 18.4961C35.286 19.0081 35.286 19.5201 35.286 20.0961C35.2819 22.6492 34.6325 25.1602 33.3974 27.3973C32.1623 29.6343 30.3813 31.5255 28.2191 32.8961C27.9943 33.0401 27.7856 33.2161 27.5447 33.3441C26.3661 34.0127 25.1016 34.5187 23.7863 34.8481L25.8903 38.5761C25.9618 38.6994 26.0649 38.8014 26.1891 38.8717C26.3134 38.942 26.4541 38.9781 26.5969 38.9761C26.6819 38.9914 26.769 38.9914 26.854 38.9761L27.3678 38.7681L27.8337 38.5761C28.5441 38.2821 29.2361 37.9455 29.9056 37.5681C33.037 35.8108 35.6389 33.2502 37.4409 30.1524C39.2428 27.0545 40.1792 23.5324 40.1525 19.9521C40.1525 19.3601 40.1203 18.8961 40.0721 18.3521Z" fill="#3758F9"/>
<path d="M28.7035 33.5388C28.5956 33.3563 28.424 33.2196 28.2216 33.1548H27.9967C27.8573 33.1559 27.72 33.1887 27.5952 33.2508C25.305 34.549 22.7137 35.2275 20.0788 35.2188C16.0347 35.2103 12.1587 33.6062 9.29915 30.7575C6.43957 27.9088 4.8293 24.0475 4.82081 20.0188C4.8293 15.9901 6.43957 12.1288 9.29915 9.28011C12.1587 6.43139 16.0347 4.82725 20.0788 4.81879C22.7125 4.81963 25.3014 5.49748 27.5952 6.78679C27.7151 6.86261 27.8547 6.90156 27.9967 6.89879H28.1734C28.2835 6.87457 28.3874 6.82797 28.4786 6.7619C28.5698 6.69582 28.6465 6.61169 28.7035 6.51479L30.3096 3.73079C30.4158 3.54563 30.445 3.32642 30.391 3.12009C30.3369 2.91375 30.2039 2.73669 30.0204 2.62679C26.9973 0.924898 23.5834 0.0319195 20.1109 0.034797C14.789 0.0432594 9.68741 2.15311 5.92422 5.90201C2.16104 9.6509 0.0431627 14.7331 0.034668 20.0348C0.0431627 25.3365 2.16104 30.4187 5.92422 34.1676C9.68741 37.9165 14.789 40.0263 20.1109 40.0348C23.5834 40.0377 26.9973 39.1447 30.0204 37.4428C30.1123 37.3914 30.1929 37.3222 30.2575 37.2392C30.322 37.1562 30.3691 37.0612 30.3961 36.9597C30.423 36.8583 30.4294 36.7524 30.4145 36.6485C30.3996 36.5446 30.3639 36.4447 30.3096 36.3548L28.7035 33.5388Z" fill="#3758F9"/>
<path opacity="0.56" d="M22.3729 22.4H17.2977C17.1538 22.3898 17.0143 22.3452 16.8913 22.27C16.7683 22.1948 16.6653 22.0912 16.5909 21.968L25.9225 38.432C25.9939 38.5553 26.097 38.6573 26.2213 38.7277C26.3455 38.798 26.4862 38.834 26.6291 38.832C26.7194 38.8472 26.8118 38.8472 26.9022 38.832C27.9634 38.4514 28.9898 37.9803 29.9699 37.424C30.0618 37.3726 30.1422 37.3034 30.2067 37.2204C30.2712 37.1375 30.3184 37.0424 30.3453 36.9409C30.3723 36.8395 30.3786 36.7336 30.3638 36.6297C30.3489 36.5258 30.3132 36.4259 30.2589 36.336L22.3729 22.4Z" fill="#3758F9"/>
</g>
<path d="M62.7608 13.6567V30.6077H59.7686V13.6567H55.2097V10.855H67.3068V13.6567H62.7608Z" fill="white"/>
<path d="M77.5419 18.1471H80.4441V30.6077H77.5419V29.3028C76.3518 30.4115 75.0719 30.9659 73.7021 30.9659C71.9727 30.9659 70.543 30.3433 69.4129 29.0981C68.2914 27.8273 67.7306 26.2409 67.7306 24.339C67.7306 22.4712 68.2914 20.9147 69.4129 19.6695C70.5344 18.4243 71.9385 17.8017 73.6251 17.8017C75.0805 17.8017 76.3861 18.3987 77.5419 19.5928V18.1471ZM70.6843 24.339C70.6843 25.533 71.0053 26.5053 71.6474 27.2559C72.3066 28.0149 73.1371 28.3945 74.1387 28.3945C75.2089 28.3945 76.0736 28.0277 76.7328 27.2942C77.392 26.5352 77.7217 25.5714 77.7217 24.403C77.7217 23.2345 77.392 22.2708 76.7328 21.5117C76.0736 20.7697 75.2175 20.3987 74.1644 20.3987C73.1713 20.3987 72.3409 20.774 71.6731 21.5245C71.0139 22.2836 70.6843 23.2217 70.6843 24.339Z" fill="white"/>
<path d="M86.9807 18.1471V30.6077H84.0913V18.1471H86.9807ZM83.6546 12.9659C83.6546 12.4627 83.8387 12.0277 84.2068 11.661C84.575 11.2942 85.0159 11.1109 85.5296 11.1109C86.0518 11.1109 86.497 11.2942 86.8651 11.661C87.2333 12.0192 87.4173 12.4584 87.4173 12.9787C87.4173 13.4989 87.2333 13.9424 86.8651 14.3092C86.5055 14.6759 86.0646 14.8593 85.5424 14.8593C85.0202 14.8593 84.575 14.6759 84.2068 14.3092C83.8387 13.9424 83.6546 13.4947 83.6546 12.9659Z" fill="white"/>
<path d="M93.5301 9V30.6077H90.6407V9H93.5301Z" fill="white"/>
<path d="M107.939 20.322H116.132V20.9744C116.132 22.4584 115.956 23.7719 115.605 24.9147C115.263 25.9723 114.685 26.9616 113.872 27.8827C112.031 29.9467 109.69 30.9787 106.847 30.9787C104.073 30.9787 101.698 29.9808 99.7199 27.9851C97.7422 25.9808 96.7534 23.5757 96.7534 20.7697C96.7534 17.9041 97.7594 15.4733 99.7713 13.4776C101.783 11.4733 104.232 10.4712 107.117 10.4712C108.666 10.4712 110.113 10.7868 111.457 11.4179C112.742 12.049 114.004 13.0725 115.246 14.4883L113.114 16.5224C111.487 14.3646 109.505 13.2857 107.168 13.2857C105.071 13.2857 103.311 14.0064 101.89 15.4478C100.469 16.8635 99.7584 18.6375 99.7584 20.7697C99.7584 22.9701 100.55 24.7825 102.134 26.2068C103.615 27.5288 105.221 28.1898 106.95 28.1898C108.422 28.1898 109.745 27.6951 110.918 26.7058C112.091 25.7079 112.746 24.5139 112.883 23.1237H107.939V20.322Z" fill="white"/>
<path d="M119.355 18.1471H122.245V19.2601C122.775 18.7058 123.246 18.3262 123.657 18.1215C124.077 17.9083 124.573 17.8017 125.147 17.8017C125.909 17.8017 126.705 18.049 127.536 18.5437L126.213 21.1791C125.665 20.7868 125.13 20.5906 124.608 20.5906C123.032 20.5906 122.245 21.7761 122.245 24.1471V30.6077H119.355V18.1471Z" fill="white"/>
<path d="M132.493 18.1471V30.6077H129.603V18.1471H132.493ZM129.166 12.9659C129.166 12.4627 129.351 12.0277 129.719 11.661C130.087 11.2942 130.528 11.1109 131.041 11.1109C131.564 11.1109 132.009 11.2942 132.377 11.661C132.745 12.0192 132.929 12.4584 132.929 12.9787C132.929 13.4989 132.745 13.9424 132.377 14.3092C132.017 14.6759 131.576 14.8593 131.054 14.8593C130.532 14.8593 130.087 14.6759 129.719 14.3092C129.351 13.9424 129.166 13.4947 129.166 12.9659Z" fill="white"/>
<path d="M145.373 9H148.275V30.6077H145.373V29.3028C144.234 30.4115 142.946 30.9659 141.508 30.9659C139.795 30.9659 138.374 30.3433 137.244 29.0981C136.123 27.8273 135.562 26.2409 135.562 24.339C135.562 22.4797 136.123 20.9275 137.244 19.6823C138.357 18.4286 139.757 17.8017 141.443 17.8017C142.907 17.8017 144.217 18.3987 145.373 19.5928V9ZM138.515 24.339C138.515 25.533 138.836 26.5053 139.479 27.2559C140.138 28.0149 140.968 28.3945 141.97 28.3945C143.04 28.3945 143.905 28.0277 144.564 27.2942C145.223 26.5352 145.553 25.5714 145.553 24.403C145.553 23.2345 145.223 22.2708 144.564 21.5117C143.905 20.7697 143.049 20.3987 141.996 20.3987C141.002 20.3987 140.172 20.774 139.504 21.5245C138.845 22.2836 138.515 23.2217 138.515 24.339Z" fill="white"/>
<path d="M159.191 20.2708L156.802 21.5373C156.426 20.7697 155.959 20.3859 155.403 20.3859C155.137 20.3859 154.91 20.4755 154.722 20.6546C154.534 20.8252 154.439 21.0469 154.439 21.3198C154.439 21.7974 154.996 22.2708 156.109 22.7399C157.641 23.3966 158.673 24.0021 159.204 24.5565C159.735 25.1109 160 25.8571 160 26.7953C160 27.9979 159.555 29.0043 158.664 29.8145C157.8 30.5821 156.755 30.9659 155.531 30.9659C153.434 30.9659 151.948 29.9467 151.075 27.9083L153.541 26.7697C153.883 27.3667 154.144 27.7463 154.324 27.9083C154.675 28.2324 155.094 28.3945 155.582 28.3945C156.558 28.3945 157.046 27.951 157.046 27.064C157.046 26.5522 156.67 26.0746 155.916 25.6311C155.625 25.4861 155.334 25.3454 155.043 25.209C154.752 25.0725 154.457 24.9318 154.157 24.7868C153.318 24.3774 152.727 23.968 152.385 23.5586C151.948 23.0384 151.73 22.3689 151.73 21.5501C151.73 20.467 152.102 19.5714 152.847 18.8635C153.609 18.1557 154.534 17.8017 155.621 17.8017C157.222 17.8017 158.412 18.6247 159.191 20.2708Z" fill="white"/>
<defs>
<clipPath id="clip0_57_9391">
<rect width="40.1525" height="40" fill="white"/>
</clipPath>
</defs>
</svg>
